<svg xmlns="http://www.w3.org/2000/svg" xmlns:xlink="http://www.w3.org/1999/xlink" aria-hidden="true" role="img" class="iconify iconify--logos" width="35.93" height="32" preserveAspectRatio="xMidYMid meet" viewBox="0 0 256 228"><path fill="#00D8FF" d="M210.483 73.824a171.49 171.49 0 0 0-8.24-2.597c.465-1.91.993-3.777 1.475-5.61c6.238-23.618 4.16-44.994-5.768-61.467c-9.355-15.612-25.644-24.798-46.581-26.991c-24.552-2.59-55.766 5.59-87.387 23.28a186.04 186.04 0 0 0-8.732 4.672a155.866 155.866 0 0 0-4.276 2.554a172.45 172.45 0 0 1 15.238-8.085c33.714-16.24 65.163-24.175 90.546-21.387c22.478 2.373 36.625 10.71 44.182 23.428c8.313 13.875 9.71 33.674 4.072 55.213a160.536 160.536 0 0 1-4.85 15.56Zm-20.048 7.857c-1.033.385-2.066.763-3.104 1.132c20.026 9.72 37.405 22.912 50.779 38.693c23.288 27.495 33.003 59.962 27.05 88.854c-6.463 31.213-30.558 54.5-63.25 60.88c-29.512 5.767-66.443-1.74-101.877-20.835c33.037 18.286 68.688 26.568 99.187 21.174c36.558-6.505 62.843-32.304 69.872-66.36c6.44-31.577-2.43-67.006-26.763-96.09a170.871 170.871 0 0 0-2.922-3.538a171.24 171.24 0 0 0-38.932-17.31Zm-30.09 11.183c1.562-.282 3.13-.55 4.703-.8c-17.884-3.613-35.897-4.715-53.183-3.158c-39.457 3.572-74.096 19.92-96.693 42.517c-23.952 23.952-38.168 57.777-38.168 91.623c0 27.71 9.44 52.83 25.21 72.31c-6.77-3.54-13.19-7.61-19.2-12.15C9.163 325.724 0 303.16 0 278.04c0-38.753 16.36-73.735 42.557-98.588c24.956-24.956 60.964-41.055 99.74-44.89c20.793-1.882 41.877-1.08 62.6 2.302a308.723 308.723 0 0 0-5.972-45.18Zm-97.95 21.788c-43.405 0-82.05 19.332-108.457 50.018c-7.422 8.515-13.69 17.707-18.676 27.43c17.203-59.512 70.88-104.016 135.61-104.016c6.214 0 12.35.48 18.38 1.42c-10.736-2.98-21.763-4.852-26.857-4.852Zm133.024 10.08a146.867 146.867 0 0 1 7.653 22.345a145.52 145.52 0 0 1 2.91 18.593c-28.234-3.988-57.834-4.015-87.044.075c-31.82 4.437-62.58 13.655-88.784 27.04c-29.527 15.05-52.876 34.29-66.58 55.826c15.617 9.83 33.17 17.36 52.082 22.24c35.583 9.15 76.466 9.15 115.817-.004c40.907-9.447 77.794-27.452 105.82-51.466c10.16-8.693 19.073-18.02 26.588-27.835c-11.906-38.815-38.466-72.93-74.05-97.82a145.11 145.11 0 0 0-10.38-7.01Zm-142.83 50.818c26.673-13.59 55.892-22.283 85.725-26.478c28.625-3.99 57.62-3.744 85.55.726c25.86 4.14 50.174 11.893 71.57 22.783c-7.23 12.74-16.345 24.577-27.063 35.295c-25.293 25.293-58.66 43.95-94.485 53.643c-38.01 10.28-79.865 10.28-117.875 0c-37.15-10.05-69.685-28.032-94.463-52.81c-9.993-9.993-18.62-20.887-25.676-32.476c12.905-10.495 28.04-19.29 44.893-26.006c22.012-8.745 46.424-14.728 72.225-17.565Zm-.34 78.24c-17.714 0-35.235 3.015-51.842 8.927c19.94 12.54 43.27 21.403 68.475 26.156c34.654 6.552 71.287 6.552 105.94 0c26.558-5.02 50.724-14.287 71.128-27.407c-18.53-5.12-38.225-7.796-58.373-7.796H256c0-12.76-2.673-24.913-7.478-35.986c-24.493 20.888-54.777 36.208-87.79 44.756c-31.23 8.122-64.318 8.122-95.548 0a236.304 236.304 0 0 1-41.682-15.767a145.533 145.533 0 0 1-7.174-3.502Z"></path></svg>

